<?xml version="1.0" encoding="UTF-8" standalone="no"?>
<!-- Created with Inkscape (http://www.inkscape.org/) -->

<svg
   xmlns:dc="http://purl.org/dc/elements/1.1/"
   xmlns:cc="http://creativecommons.org/ns#"
   xmlns:rdf="http://www.w3.org/1999/02/22-rdf-syntax-ns#"
   xmlns:svg="http://www.w3.org/2000/svg"
   xmlns="http://www.w3.org/2000/svg"
   xmlns:sodipodi="http://sodipodi.sourceforge.net/DTD/sodipodi-0.dtd"
   xmlns:inkscape="http://www.inkscape.org/namespaces/inkscape"
   id="svg2"
   version="1.1"
   inkscape:version="0.91 r13725"
   width="24.00321"
   height="18.849255"
   viewBox="0 0 24.00321 18.849255"
   sodipodi:docname="envelope.svg">
  <metadata
     id="metadata8">
    <rdf:RDF>
      <cc:Work
         rdf:about="">
        <dc:format>image/svg+xml</dc:format>
        <dc:type
           rdf:resource="http://purl.org/dc/dcmitype/StillImage" />
        <dc:title></dc:title>
      </cc:Work>
    </rdf:RDF>
  </metadata>
  <defs
     id="defs6" />
  <sodipodi:namedview
     pagecolor="#ffffff"
     bordercolor="#666666"
     borderopacity="1"
     objecttolerance="10"
     gridtolerance="10"
     guidetolerance="10"
     inkscape:pageopacity="0"
     inkscape:pageshadow="2"
     inkscape:window-width="743"
     inkscape:window-height="480"
     id="namedview4"
     showgrid="false"
     fit-margin-top="0"
     fit-margin-left="0"
     fit-margin-right="0"
     fit-margin-bottom="0"
     inkscape:zoom="7.552"
     inkscape:cx="10.110749"
     inkscape:cy="4.0866137"
     inkscape:window-x="500"
     inkscape:window-y="287"
     inkscape:window-maximized="0"
     inkscape:current-layer="svg2" />
  <path
     style="fill:#ffffff;fill-opacity:1"
     d="m 1.9520703,18.846 c -0.26535,-0.032 -0.41852,-0.068 -0.60615,-0.1421 -0.41511995,-0.1645 -0.79805995,-0.4935 -1.05139995,-0.9033 -0.14582,-0.2358 -0.24286,-0.5223 -0.28105,-0.8297 -0.0152,-0.1226 -0.0189,-10.8677 -0.004,-10.8675 0.005,1e-4 0.1236,0.1132 0.26332,0.2514 0.41641,0.4118 0.62093,0.5725 1.43119995,1.1243 3.20267,2.1808 4.92508,3.3783 6.3444,4.4108 1.11024,0.8076 1.37913,0.9829 1.8835,1.2282 0.6912697,0.3363 1.1782697,0.5004 1.6913697,0.57 0.1549,0.021 0.5794,0.022 0.7436,9e-4 0.4597,-0.058 0.8748,-0.189 1.4977,-0.4726 0.6144,-0.2798 0.8862,-0.4524 2.0896,-1.3266 1.2424,-0.9025 3.2419,-2.2942 5.5452,-3.8594 1.2127,-0.8242 1.2944,-0.8805 1.4745,-1.0171 0.285,-0.2162 0.4795,-0.3854 0.7497,-0.6525 0.1431,-0.1414 0.2645,-0.2572 0.2696,-0.2573 0.01,-1e-4 0.01,2.4519 0.01,5.4489 l 0,5.4491 -0.034,0.1501 c -0.104,0.4642 -0.3341,0.8528 -0.6911,1.1669 -0.3117,0.2743 -0.631,0.4296 -1.0435,0.5075 -0.1087,0.021 -0.6503,0.022 -10.1766,0.023 -5.5340397,8e-4 -10.0785897,-6e-4 -10.0990397,0 z M 11.76606,11.9816 c -0.1084,-0.016 -0.3007,-0.062 -0.4196,-0.1 C 10.82756,11.7145 10.27275,11.385 9.1115203,10.5545 8.2723703,9.9544 7.2037303,9.2084 4.1019803,7.0573 2.7282703,6.1046 2.2276003,5.7547 2.0865403,5.6488 1.4976203,5.2063 0.84272035,4.4813 0.45622035,3.8439 0.14230035,3.3261 0.00136035,2.8807 6.8034933e-4,2.4044 -3.1965067e-4,1.6568 0.24482035,0.9934 0.68815035,0.5446 c 0.13146,-0.1331 0.21455,-0.1989 0.35770995,-0.2832 0.19279,-0.1135 0.45715,-0.204 0.71415,-0.2444 C 1.8473103,0.003 3.6017803,0 11.99526,0 l 10.13,0 0.1416,0.029 c 0.4368,0.088 0.7978,0.2871 1.1252,0.619 0.3116,0.316 0.4997,0.6743 0.5819,1.109 0.03,0.1559 0.029,0.6365 -1e-4,0.8307 -0.059,0.3859 -0.1726,0.7472 -0.3417,1.084 -0.3395,0.6766 -0.9618,1.403 -1.668,1.9472 -0.095,0.073 -1.6149,1.1345 -3.3766,2.3578 -1.7618,1.2232 -3.4428,2.3958 -3.7357,2.6056 -1.2543,0.8987 -1.8335,1.2241 -2.429,1.3644 -0.1172,0.028 -0.1703,0.033 -0.378,0.036 -0.1329,0 -0.2583,0 -0.2788,0 z"
     id="path4138"
     inkscape:connector-curvature="0" />
</svg>
